<svg xmlns="http://www.w3.org/2000/svg" viewBox="0 0 1280 320">
  <defs>
    <linearGradient id="bg" x1="0%" y1="0%" x2="100%" y2="100%">
      <stop offset="0%" stop-color="#0a1628"/>
      <stop offset="50%" stop-color="#1a2744"/>
      <stop offset="100%" stop-color="#0a1628"/>
    </linearGradient>
    <linearGradient id="accent" x1="0%" y1="0%" x2="100%" y2="0%">
      <stop offset="0%" stop-color="#4a7cc9"/>
      <stop offset="50%" stop-color="#7ba4d9"/>
      <stop offset="100%" stop-color="#4a7cc9"/>
    </linearGradient>
    <linearGradient id="glow" x1="0%" y1="0%" x2="0%" y2="100%">
      <stop offset="0%" stop-color="#4a7cc9" stop-opacity="0.18"/>
      <stop offset="100%" stop-color="#4a7cc9" stop-opacity="0"/>
    </linearGradient>
  </defs>

  <rect width="1280" height="320" fill="url(#bg)"/>

  <g opacity="0.04" stroke="#4a7cc9" stroke-width="0.5" fill="none">
    <line x1="0" y1="80" x2="1280" y2="80"/>
    <line x1="0" y1="160" x2="1280" y2="160"/>
    <line x1="0" y1="240" x2="1280" y2="240"/>
    <line x1="320" y1="0" x2="320" y2="320"/>
    <line x1="640" y1="0" x2="640" y2="320"/>
    <line x1="960" y1="0" x2="960" y2="320"/>
  </g>

  <ellipse cx="640" cy="0" rx="500" ry="200" fill="url(#glow)"/>

  <rect x="0" y="0" width="1280" height="2" fill="url(#accent)" opacity="0.6"/>
  <rect x="0" y="318" width="1280" height="2" fill="url(#accent)" opacity="0.3"/>

  <g transform="translate(165, 60)" opacity="0.12" fill="#4a7cc9">
    <path d="M0,100 C-5,70 -30,30 -50,15 C-25,35 -5,50 0,45 C5,50 25,35 50,15 C30,30 5,70 0,100Z"/>
    <path d="M0,45 C-10,30 -45,5 -55,10 C-30,12 -10,30 0,45Z"/>
    <path d="M0,45 C10,30 45,5 55,10 C30,12 10,30 0,45Z"/>
    <path d="M0,40 C-8,20 -40,-5 -48,2 C-25,5 -8,22 0,40Z"/>
    <path d="M0,40 C8,20 40,-5 48,2 C25,5 8,22 0,40Z"/>
    <rect x="-3" y="100" width="6" height="120" rx="3"/>
  </g>

  <g transform="translate(1115, 80)" opacity="0.08" fill="#4a7cc9">
    <path d="M0,80 C-4,56 -24,24 -40,12 C-20,28 -4,40 0,36 C4,40 20,28 40,12 C24,24 4,56 0,80Z"/>
    <path d="M0,36 C-8,24 -36,4 -44,8 C-24,10 -8,24 0,36Z"/>
    <path d="M0,36 C8,24 36,4 44,8 C24,10 8,24 0,36Z"/>
    <rect x="-2.5" y="80" width="5" height="100" rx="2.5"/>
  </g>

  <text x="640" y="120" text-anchor="middle"
        font-family="system-ui, -apple-system, 'Segoe UI', Roboto, Helvetica, Arial, sans-serif"
        font-size="52" font-weight="800" letter-spacing="-1.5" fill="#FFFFFF">poke-code</text>

  <text x="640" y="170" text-anchor="middle"
        font-family="system-ui, -apple-system, 'Segoe UI', Roboto, Helvetica, Arial, sans-serif"
        font-size="20" font-weight="400" fill="#7ba4d9">a terminal CLI for coding with Poke AI</text>

  <g transform="translate(640, 225)" text-anchor="middle"
     font-family="'SF Mono', 'Fira Code', 'JetBrains Mono', monospace"
     font-size="13" font-weight="500">
    <rect x="-310" y="-16" width="95" height="30" rx="15"
          fill="#4a7cc9" fill-opacity="0.12" stroke="#4a7cc9" stroke-opacity="0.25" stroke-width="1"/>
    <text x="-262" y="4" fill="#7ba4d9">TypeScript</text>
    <rect x="-195" y="-16" width="100" height="30" rx="15"
          fill="#4a7cc9" fill-opacity="0.12" stroke="#4a7cc9" stroke-opacity="0.25" stroke-width="1"/>
    <text x="-145" y="4" fill="#7ba4d9">React / Ink</text>
    <rect x="-75" y="-16" width="85" height="30" rx="15"
          fill="#4a7cc9" fill-opacity="0.12" stroke="#4a7cc9" stroke-opacity="0.25" stroke-width="1"/>
    <text x="-32" y="4" fill="#7ba4d9">iMessage</text>
    <rect x="30" y="-16" width="70" height="30" rx="15"
          fill="#4a7cc9" fill-opacity="0.12" stroke="#4a7cc9" stroke-opacity="0.25" stroke-width="1"/>
    <text x="65" y="4" fill="#7ba4d9">SQLite</text>
    <rect x="120" y="-16" width="100" height="30" rx="15"
          fill="#4a7cc9" fill-opacity="0.12" stroke="#4a7cc9" stroke-opacity="0.25" stroke-width="1"/>
    <text x="170" y="4" fill="#7ba4d9">Local Tools</text>
    <rect x="240" y="-16" width="75" height="30" rx="15"
          fill="#4a7cc9" fill-opacity="0.12" stroke="#4a7cc9" stroke-opacity="0.25" stroke-width="1"/>
    <text x="277" y="4" fill="#7ba4d9">Node.js</text>
  </g>
</svg>
